HIERARCHY
ROOT Hips
{
  OFFSET -21.7848 93.0946 1805.31
  CHANNELS 6 Xposition Yposition Zposition Zrotation Xrotation Yrotation
  JOINT Spine
  {
    OFFSET 0 8 0
    CHANNELS 6 Xposition Yposition Zposition Zrotation Xrotation Yrotation
    JOINT Spine1
    {
      OFFSET 0 8 0
      CHANNELS 6 Xposition Yposition Zposition Zrotation Xrotation Yrotation
      JOINT Spine2
      {
        OFFSET 0 8 0
        CHANNELS 6 Xposition Yposition Zposition Zrotation Xrotation Yrotation
        JOINT Spine3
        {
          OFFSET 0 8 0
          CHANNELS 6 Xposition Yposition Zposition Zrotation Xrotation Yrotation
          JOINT Neck
          {
            OFFSET 0 17 0
            CHANNELS 6 Xposition Yposition Zposition Zrotation Xrotation Yrotation
            JOINT Head
            {
              OFFSET 0 10.8 0
              CHANNELS 6 Xposition Yposition Zposition Zrotation Xrotation Yrotation
              End Site
              {
                OFFSET 0 20.25 0
              }
            }
          }
          JOINT LeftShoulder
          {
            OFFSET 5 17 0
            CHANNELS 6 Xposition Yposition Zposition Zrotation Xrotation Yrotation
            JOINT LeftShoulder2
            {
              OFFSET 6.45 0 0
              CHANNELS 6 Xposition Yposition Zposition Zrotation Xrotation Yrotation
              JOINT LeftArm
              {
                OFFSET 6.45 0 0
                CHANNELS 6 Xposition Yposition Zposition Zrotation Xrotation Yrotation
                JOINT LeftForeArm
                {
                  OFFSET 0 -32.4 -2
                  CHANNELS 6 Xposition Yposition Zposition Zrotation Xrotation Yrotation
                  JOINT LeftHand
                  {
                    OFFSET 0 -25.65 2
                    CHANNELS 6 Xposition Yposition Zposition Zrotation Xrotation Yrotation
                    JOINT LeftHandThumb1
                    {
                      OFFSET -0.5 -1.5 2.65
                      CHANNELS 6 Xposition Yposition Zposition Zrotation Xrotation Yrotation
                      JOINT LeftHandThumb2
                      {
                        OFFSET 0 -3.8 3.7
                        CHANNELS 6 Xposition Yposition Zposition Zrotation Xrotation Yrotation
                        JOINT LeftHandThumb3
                        {
                          OFFSET 0 -3 2.7
                          CHANNELS 6 Xposition Yposition Zposition Zrotation Xrotation Yrotation
                          End Site
                          {
                            OFFSET 0 -2.3 1.8
                          }
                        }
                      }
                    }
                    JOINT LeftHandIndex
                    {
                      OFFSET 0 -1.9 1.6
                      CHANNELS 6 Xposition Yposition Zposition Zrotation Xrotation Yrotation
                      JOINT LeftHandIndex1
                      {
                        OFFSET 0 -8.3 1.9
                        CHANNELS 6 Xposition Yposition Zposition Zrotation Xrotation Yrotation
                        JOINT LeftHandIndex2
                        {
                          OFFSET 0 -4.5 0
                          CHANNELS 6 Xposition Yposition Zposition Zrotation Xrotation Yrotation
                          JOINT LeftHandIndex3
                          {
                            OFFSET 0 -3.4 0
                            CHANNELS 6 Xposition Yposition Zposition Zrotation Xrotation Yrotation
                            End Site
                            {
                              OFFSET 0 -2.6 0
                            }
                          }
                        }
                      }
                    }
                    JOINT LeftHandMiddle
                    {
                      OFFSET -0.25 -2.2 0.4
                      CHANNELS 6 Xposition Yposition Zposition Zrotation Xrotation Yrotation
                      JOINT LeftHandMiddle1
                      {
                        OFFSET 0 -8.3 1
                        CHANNELS 6 Xposition Yposition Zposition Zrotation Xrotation Yrotation
                        JOINT LeftHandMiddle2
                        {
                          OFFSET 0 -4.65 0
                          CHANNELS 6 Xposition Yposition Zposition Zrotation Xrotation Yrotation
                          JOINT LeftHandMiddle3
                          {
                            OFFSET 0 -3.3 0
                            CHANNELS 6 Xposition Yposition Zposition Zrotation Xrotation Yrotation
                            End Site
                            {
                              OFFSET 0 -2.7 0
                            }
                          }
                        }
                      }
                    }
                    JOINT LeftHandRing
                    {
                      OFFSET -0.5 -2.15 -0.8
                      CHANNELS 6 Xposition Yposition Zposition Zrotation Xrotation Yrotation
                      JOINT LeftHandRing1
                      {
                        OFFSET 0 -7.75 -0.2
                        CHANNELS 6 Xposition Yposition Zposition Zrotation Xrotation Yrotation
                        JOINT LeftHandRing2
                        {
                          OFFSET 0 -3.8 0
                          CHANNELS 6 Xposition Yposition Zposition Zrotation Xrotation Yrotation
                          JOINT LeftHandRing3
                          {
                            OFFSET 0 -3.4 0
                            CHANNELS 6 Xposition Yposition Zposition Zrotation Xrotation Yrotation
                            End Site
                            {
                              OFFSET 0 -2.6 0
                            }
                          }
                        }
                      }
                    }
                    JOINT LeftHandPinky
                    {
                      OFFSET -0.75 -1.75 -1.85
                      CHANNELS 6 Xposition Yposition Zposition Zrotation Xrotation Yrotation
                      JOINT LeftHandPinky1
                      {
                        OFFSET 0 -7.15 -1
                        CHANNELS 6 Xposition Yposition Zposition Zrotation Xrotation Yrotation
                        JOINT LeftHandPinky2
                        {
                          OFFSET 0 -3 0
                          CHANNELS 6 Xposition Yposition Zposition Zrotation Xrotation Yrotation
                          JOINT LeftHandPinky3
                          {
                            OFFSET 0 -2.35 0
                            CHANNELS 6 Xposition Yposition Zposition Zrotation Xrotation Yrotation
                            End Site
                            {
                              OFFSET 0 -2.1 0
                            }
                          }
                        }
                      }
                    }
                  }
                }
              }
            }
          }
          JOINT RightShoulder
          {
            OFFSET -5 17 0
            CHANNELS 6 Xposition Yposition Zposition Zrotation Xrotation Yrotation
            JOINT RightShoulder2
            {
              OFFSET -6.45 0 0
              CHANNELS 6 Xposition Yposition Zposition Zrotation Xrotation Yrotation
              JOINT RightArm
              {
                OFFSET -6.45 0 0
                CHANNELS 6 Xposition Yposition Zposition Zrotation Xrotation Yrotation
                JOINT RightForeArm
                {
                  OFFSET 0 -32.4 -2
                  CHANNELS 6 Xposition Yposition Zposition Zrotation Xrotation Yrotation
                  JOINT RightHand
                  {
                    OFFSET 0 -25.65 2
                    CHANNELS 6 Xposition Yposition Zposition Zrotation Xrotation Yrotation
                    JOINT RightHandThumb1
                    {
                      OFFSET 0.5 -1.5 2.65
                      CHANNELS 6 Xposition Yposition Zposition Zrotation Xrotation Yrotation
                      JOINT RightHandThumb2
                      {
                        OFFSET 0 -3.8 3.7
                        CHANNELS 6 Xposition Yposition Zposition Zrotation Xrotation Yrotation
                        JOINT RightHandThumb3
                        {
                          OFFSET 0 -3 2.7
                          CHANNELS 6 Xposition Yposition Zposition Zrotation Xrotation Yrotation
                          End Site
                          {
                            OFFSET 0 -2.3 1.8
                          }
                        }
                      }
                    }
                    JOINT RightHandIndex
                    {
                      OFFSET 0 -1.9 1.6
                      CHANNELS 6 Xposition Yposition Zposition Zrotation Xrotation Yrotation
                      JOINT RightHandIndex1
                      {
                        OFFSET 0 -8.3 1.9
                        CHANNELS 6 Xposition Yposition Zposition Zrotation Xrotation Yrotation
                        JOINT RightHandIndex2
                        {
                          OFFSET 0 -4.5 0
                          CHANNELS 6 Xposition Yposition Zposition Zrotation Xrotation Yrotation
                          JOINT RightHandIndex3
                          {
                            OFFSET 0 -3.4 0
                            CHANNELS 6 Xposition Yposition Zposition Zrotation Xrotation Yrotation
                            End Site
                            {
                              OFFSET 0 -2.6 0
                            }
                          }
                        }
                      }
                    }
                    JOINT RightHandMiddle
                    {
                      OFFSET 0.25 -2.2 0.4
                      CHANNELS 6 Xposition Yposition Zposition Zrotation Xrotation Yrotation
                      JOINT RightHandMiddle1
                      {
                        OFFSET 0 -8.3 1
                        CHANNELS 6 Xposition Yposition Zposition Zrotation Xrotation Yrotation
                        JOINT RightHandMiddle2
                        {
                          OFFSET 0 -4.65 0
                          CHANNELS 6 Xposition Yposition Zposition Zrotation Xrotation Yrotation
                          JOINT RightHandMiddle3
                          {
                            OFFSET 0 -3.3 0
                            CHANNELS 6 Xposition Yposition Zposition Zrotation Xrotation Yrotation
                            End Site
                            {
                              OFFSET 0 -2.7 0
                            }
                          }
                        }
                      }
                    }
                    JOINT RightHandRing
                    {
                      OFFSET 0.5 -2.15 -0.8
                      CHANNELS 6 Xposition Yposition Zposition Zrotation Xrotation Yrotation
                      JOINT RightHandRing1
                      {
                        OFFSET 0 -7.75 -0.2
                        CHANNELS 6 Xposition Yposition Zposition Zrotation Xrotation Yrotation
                        JOINT RightHandRing2
                        {
                          OFFSET 0 -3.8 0
                          CHANNELS 6 Xposition Yposition Zposition Zrotation Xrotation Yrotation
                          JOINT RightHandRing3
                          {
                            OFFSET 0 -3.4 0
                            CHANNELS 6 Xposition Yposition Zposition Zrotation Xrotation Yrotation
                            End Site
                            {
                              OFFSET 0 -2.6 0
                            }
                          }
                        }
                      }
                    }
                    JOINT RightHandPinky
                    {
                      OFFSET 0.75 -1.75 -1.85
                      CHANNELS 6 Xposition Yposition Zposition Zrotation Xrotation Yrotation
                      JOINT RightHandPinky1
                      {
                        OFFSET 0 -7.15 -1
                        CHANNELS 6 Xposition Yposition Zposition Zrotation Xrotation Yrotation
                        JOINT RightHandPinky2
                        {
                          OFFSET 0 -3 0
                          CHANNELS 6 Xposition Yposition Zposition Zrotation Xrotation Yrotation
                          JOINT RightHandPinky3
                          {
                            OFFSET 0 -2.35 0
                            CHANNELS 6 Xposition Yposition Zposition Zrotation Xrotation Yrotation
                            End Site
                            {
                              OFFSET 0 -2.1 0
                            }
                          }
                        }
                      }
                    }
                  }
                }
              }
            }
          }
        }
      }
    }
  }
  JOINT LeftUpLeg
  {
    OFFSET 8 0 0
    CHANNELS 6 Xposition Yposition Zposition Zrotation Xrotation Yrotation
    JOINT LeftLeg
    {
      OFFSET 0 -45 -1
      CHANNELS 6 Xposition Yposition Zposition Zrotation Xrotation Yrotation
      JOINT LeftFoot
      {
        OFFSET 0 -41 -2
        CHANNELS 6 Xposition Yposition Zposition Zrotation Xrotation Yrotation
        JOINT LeftToeBase
        {
          OFFSET 0 -7.5 12.5
          CHANNELS 6 Xposition Yposition Zposition Zrotation Xrotation Yrotation
          JOINT LeftFootToe
          {
            OFFSET 0 0 4
            CHANNELS 6 Xposition Yposition Zposition Zrotation Xrotation Yrotation
            End Site
            {
              OFFSET 0 0 0
            }
          }
        }
      }
    }
  }
  JOINT RightUpLeg
  {
    OFFSET -8 0 0
    CHANNELS 6 Xposition Yposition Zposition Zrotation Xrotation Yrotation
    JOINT RightLeg
    {
      OFFSET 0 -45 -1
      CHANNELS 6 Xposition Yposition Zposition Zrotation Xrotation Yrotation
      JOINT RightFoot
      {
        OFFSET 0 -41 -2
        CHANNELS 6 Xposition Yposition Zposition Zrotation Xrotation Yrotation
        JOINT RightToeBase
        {
          OFFSET 0 -7.5 12.5
          CHANNELS 6 Xposition Yposition Zposition Zrotation Xrotation Yrotation
          JOINT RightFootToe
          {
            OFFSET 0 0 4
            CHANNELS 6 Xposition Yposition Zposition Zrotation Xrotation Yrotation
            End Site
            {
              OFFSET 0 0 0
            }
          }
        }
      }
    }
  }
}
MOTION
Frames:	3
Frame Time:	0.0111111
-284.423 92.5297 605.446 4.70292 0.270447 177.569 0 8 0 18.1489 5.25396 -5.34229 0 8 1.13687e-13 3.33097 5.08556 0.696176 5.68434e-14 8 0 1.67283 2.53957 0.385006 5.68434e-14 8 0 1.67045 2.53592 0.384519 5.68434e-14 17 1.13687e-13 2.6097 7.00762 -8.50858 5.68434e-14 10.8 0 7.87574 15.6758 -20.8339 5 17 0 6.40139 2.88758 -1.60431 6.45 0 0 -0.912566 0.0644645 0.0123287 6.45 2.84217e-14 0 42.3685 -34.4173 -23.915 -2.84217e-14 -32.4 -2 -67.0477 -21.1891 -19.6044 0 -25.65 2 -32.7962 40.0784 -8.06283 -0.5 -1.5 2.65 9.77289 -23.7922 5.29745 0 -3.8 3.7 0.0437796 17.7629 0.140086 0 -3 2.7 -0.0907403 22.2749 -0.166144 0 -1.9 1.6 3.18055e-15 4.77083e-15 7.95139e-16 5.68434e-14 -8.3 1.9 -15.3688 17.7074 2.91159 5.68434e-14 -4.5 0 -57.0681 -0.022855 -0.110754 0 -3.4 2.84217e-14 -41.421 0.0389629 -0.0820905 -0.25 -2.2 0.4 3.18055e-15 4.77083e-15 7.95139e-16 5.68434e-14 -8.3 1 -53.1997 12.5992 8.73639 -2.84217e-14 -4.65 -2.84217e-14 -13.29 0.00215305 -0.0243811 5.68434e-14 -3.3 0 -11.2655 0.00205708 -0.0165063 -0.5 -2.15 -0.8 3.18055e-15 4.77083e-15 7.95139e-16 0 -7.75 -0.2 -69.5062 6.92488 10.3076 0 -3.8 0 -56.6217 -0.0374995 0.021294 0 -3.4 0 -39.3804 -0.0335693 -0.00599103 -0.75 -1.75 -1.85 3.18055e-15 4.77083e-15 7.95139e-16 0 -7.15 -1 -88.8881 1.86639 16.5741 0 -3 0 -4.06045 0.00516041 -0.0100317 -1.13687e-13 -2.35 -2.84217e-14 -3.76805 0.00497613 -0.00884887 -5 17 0 8.60489 -3.68377 -4.51152 -6.45 1.42109e-14 0 -1.2774 0.627784 -0.379835 -6.45 1.42109e-14 0 -20.6842 -11.443 -6.69212 -2.84217e-14 -32.4 -2 40.0618 -69.2891 44.4532 0 -25.65 2 -20.8252 -5.10087 -2.26954 0.5 -1.5 2.65 8.02373 -14.3546 -1.85649 2.84217e-14 -3.8 3.7 0.789388 34.6245 -0.301475 0 -3 2.7 0.0517763 32.46 -0.0465771 -2.84217e-14 -1.9 1.6 0 0 -1.59028e-15 0 -8.3 1.9 30.9128 23.3374 -7.08617 0 -4.5 -5.68434e-14 18.0869 0.00239373 0.00578104 0 -3.4 0 14.624 0.00492985 0.0024602 0.25 -2.2 0.4 0 0 -1.59028e-15 2.84217e-14 -8.3 1 33.4594 17.8658 -6.44416 0 -4.65 -2.84217e-14 33.3071 0.000405459 0.00348966 0 -3.3 0 24.0693 0.00374188 -0.00280454 0.5 -2.15 -0.8 0 0 -1.59028e-15 0 -7.75 -0.2 36.1323 9.74132 -4.87911 -5.68434e-14 -3.8 0 23.0245 0.0020171 0.00277801 0 -3.4 0 17.8261 -0.00260896 -0.000547479 0.75 -1.75 -1.85 0 0 -1.59028e-15 0 -7.15 -1 49.4449 2.96678 -4.34407 5.68434e-14 -3 0 16.075 0.00276854 0.00146527 0 -2.35 0 13.2533 0.000886247 0.00513981 8 0 -1.13687e-13 9.3516 -13.2628 -8.71835 0 -45 -1 9.50404e-05 4.61994 -0.636026 8.52651e-14 -41 -2 -5.54596 5.4243 6.49487 -2.84217e-14 -7.5 12.5 4.96962e-17 0.000216628 -0 0 0 4 3.91342 -4.07945 38.333 -8 0 0 5.39882 -6.80423 -3.62595 0 -45 -1 0.0115968 8.73911 -0.298914 -5.68434e-14 -41 -2 -1.17075 -1.53096 -2.05547 5.68434e-14 -7.5 12.5 -2.91188e-19 -8.493e-20 -0 0 0 4 3.09743 -3.22094 33.2893 
-284.418 92.5222 605.45 4.69095 0.277767 177.578 -2.84217e-14 8 1.13687e-13 18.1547 5.19868 -5.30038 5.68434e-14 8 0 3.32729 5.04111 0.739262 0 8 0 1.67128 2.517 0.406167 2.84217e-14 8 -1.13687e-13 1.66893 2.51342 0.405654 2.84217e-14 17 0 2.60377 7.03148 -8.5728 0 10.8 0 7.88132 15.7268 -20.9921 5 17 0 6.25647 2.90405 -1.5915 6.45 0 0 -0.905547 0.0678194 0.027183 6.45 -2.84217e-14 1.13687e-13 42.967 -33.6889 -23.0776 0 -32.4 -2 -66.7438 -23.8167 -22.8563 -5.68434e-14 -25.65 2 -30.2608 39.9698 -10.4746 -0.5 -1.5 2.65 8.28285 -24.4307 3.96825 0 -3.8 3.7 0.104343 18.8124 0.184716 5.68434e-14 -3 2.7 -0.141368 21.147 -0.27196 5.68434e-14 -1.9 1.6 6.36111e-15 -6.36111e-15 -5.56597e-15 0 -8.3 1.9 -15.6789 17.6706 2.95527 0 -4.5 -2.84217e-14 -51.933 -0.0258335 -0.149249 -5.68434e-14 -3.4 2.84217e-14 -37.3963 0.0503095 -0.105835 -0.25 -2.2 0.4 6.36111e-15 -6.36111e-15 -5.56597e-15 0 -8.3 1 -52.9167 12.9835 8.97884 1.42109e-14 -4.65 0 -12.9428 0.00255292 -0.0312774 2.84217e-14 -3.3 0 -11.0099 0.0024258 -0.0209717 -0.5 -2.15 -0.8 6.36111e-15 -6.36111e-15 -5.56597e-15 5.68434e-14 -7.75 -0.2 -69.4604 7.03426 10.5182 5.68434e-14 -3.8 -2.84217e-14 -57.1679 -0.0486999 0.0261184 0 -3.4 5.68434e-14 -39.8167 -0.0427172 -0.0088172 -0.75 -1.75 -1.85 6.36111e-15 -6.36111e-15 -5.56597e-15 0 -7.15 -1 -89.0404 1.71018 16.6552 0 -3 0 -3.38322 0.0046716 -0.01583 0 -2.35 -2.84217e-14 -3.13774 0.00451417 -0.0141098 -5 17 -1.13687e-13 8.53481 -3.68494 -4.3595 -6.45 -1.42109e-14 1.13687e-13 -1.25326 0.613821 -0.358754 -6.45 1.42109e-14 0 -20.692 -11.0821 -6.94737 0 -32.4 -2 40.1237 -69.4845 44.6348 -2.84217e-14 -25.65 2 -20.8445 -5.0327 -2.39174 0.5 -1.5 2.65 8.01254 -14.3858 -1.86333 0 -3.8 3.7 0.792311 34.6342 -0.302017 0 -3 2.7 0.0521393 32.5668 -0.0468881 0 -1.9 1.6 -3.18055e-15 -3.18055e-15 -0 -2.84217e-14 -8.3 1.9 30.8876 23.3449 -7.08247 0 -4.5 -5.68434e-14 18.1112 0.00238669 0.00576992 5.68434e-14 -3.4 0 14.6402 0.00491584 0.0024531 0.25 -2.2 0.4 -3.18055e-15 -3.18055e-15 -0 0 -8.3 1 33.4589 17.8621 -6.44331 5.68434e-14 -4.65 2.84217e-14 33.3382 0.000434135 0.00350663 0 -3.3 -5.68434e-14 24.0878 0.00376243 -0.00278027 0.5 -2.15 -0.8 -3.18055e-15 -3.18055e-15 -0 0 -7.75 -0.2 36.1456 9.73331 -4.87884 0 -3.8 0 23.051 0.00203474 0.00279826 -1.13687e-13 -3.4 2.84217e-14 17.8427 -0.00259123 -0.000533906 0.75 -1.75 -1.85 -3.18055e-15 -3.18055e-15 -0 -2.84217e-14 -7.15 -1 49.4812 2.9623 -4.3422 0 -3 -1.42109e-14 16.1869 0.00279254 0.00148501 1.13687e-13 -2.35 0 13.3308 0.000879451 0.0051297 8 0 0 9.32928 -13.3127 -8.76628 -2.84217e-14 -45 -1 0.000550751 4.72959 -0.635416 0 -41 -2 -5.54631 5.36083 6.5007 0 -7.5 12.5 0 0.000218344 -0 8.52651e-14 0 4 3.8933 -4.02537 38.3328 -8 0 0 5.38538 -6.86754 -3.62979 2.84217e-14 -45 -1 0.0117729 8.87895 -0.297708 0 -41 -2 -1.1742 -1.60152 -2.03911 5.68434e-14 -7.5 12.5 3.74223e-19 -9.40296e-20 -0 -2.84217e-14 0 4 3.11435 -3.19061 33.2883 
-284.411 92.5142 605.449 4.68211 0.288141 177.615 0 8 0 18.1521 5.13251 -5.26686 2.84217e-14 8 0 3.32443 4.99264 0.774401 2.84217e-14 8 0 1.66996 2.49247 0.42333 -2.84217e-14 8 0 1.66764 2.48897 0.422802 0 17 0 2.59778 7.06295 -8.6352 0 10.8 1.13687e-13 7.88883 15.7958 -21.1475 5 17 0 6.12393 2.91988 -1.57176 6.45 -5.68434e-14 -1.13687e-13 -0.896838 0.0752581 0.0391769 6.45 0 0 43.5692 -32.9315 -22.2044 2.84217e-14 -32.4 -2 -66.6689 -26.6926 -26.4622 5.68434e-14 -25.65 2 -27.1679 39.686 -13.4421 -0.5 -1.5 2.65 6.58794 -25.1881 2.43772 0 -3.8 3.7 0.159498 20.002 0.218957 0 -3 2.7 -0.200395 19.8412 -0.3769 5.68434e-14 -1.9 1.6 6.36111e-15 -3.18055e-15 4.77083e-15 0 -8.3 1.9 -14.6993 17.5586 2.73488 -5.68434e-14 -4.5 0 -48.4931 -0.0370045 -0.128335 -2.84217e-14 -3.4 -2.84217e-14 -34.5374 0.0322456 -0.0957094 -0.25 -2.2 0.4 6.36111e-15 -3.18055e-15 4.77083e-15 0 -8.3 1 -52.3801 13.4046 9.21408 -1.42109e-14 -4.65 2.84217e-14 -12.5883 0.00297964 -0.0332203 2.84217e-14 -3.3 2.84217e-14 -10.7499 0.0028198 -0.0221623 -0.5 -2.15 -0.8 6.36111e-15 -3.18055e-15 4.77083e-15 -5.68434e-14 -7.75 -0.2 -69.3845 7.13943 10.7594 0 -3.8 2.84217e-14 -56.5166 -0.00152576 0.0123889 0 -3.4 0 -39.3471 -0.00877047 0.00626129 -0.75 -1.75 -1.85 6.36111e-15 -3.18055e-15 4.77083e-15 5.68434e-14 -7.15 -1 -89.1828 1.55715 16.7295 0 -3 0 -2.68818 0.00396699 -0.020785 0 -2.35 0 -2.49201 0.00385871 -0.0186624 -5 17 0 8.49542 -3.68569 -4.21939 -6.45 1.42109e-14 0 -1.23141 0.596791 -0.326524 -6.45 4.26326e-14 0 -20.6921 -10.703 -7.1982 0 -32.4 -2 40.1632 -69.7059 44.7715 5.68434e-14 -25.65 2 -20.8569 -4.98903 -2.44392 0.5 -1.5 2.65 8.00732 -14.3485 -1.88422 -2.84217e-14 -3.8 3.7 0.797119 34.6287 -0.302526 0 -3 2.7 0.0524708 32.647 -0.0471787 2.84217e-14 -1.9 1.6 2.20695e-32 1.59028e-15 -7.95139e-16 0 -8.3 1.9 30.856 23.3531 -7.07742 0 -4.5 5.68434e-14 18.1376 0.00237967 0.00575876 0 -3.4 0 14.6578 0.00490182 0.00244598 0.25 -2.2 0.4 2.20695e-32 1.59028e-15 -7.95139e-16 0 -8.3 1 33.4484 17.8563 -6.44182 0 -4.65 2.84217e-14 33.3324 0.000462776 0.00352359 0 -3.3 0 24.0844 0.00378296 -0.00275596 0.5 -2.15 -0.8 2.20695e-32 1.59028e-15 -7.95139e-16 2.84217e-14 -7.75 -0.2 36.1414 9.72033 -4.87839 -5.68434e-14 -3.8 0 23.0477 0.00205236 0.00281849 0 -3.4 0 17.8406 -0.00257353 -0.000520357 0.75 -1.75 -1.85 2.20695e-32 1.59028e-15 -7.95139e-16 -5.68434e-14 -7.15 -1 49.4819 2.94773 -4.33781 0 -3 -1.42109e-14 16.275 0.00281654 0.00150475 0 -2.35 -1.42109e-14 13.392 0.000872676 0.00511963 8 0 0 9.30837 -13.3722 -8.7884 2.84217e-14 -45 -1 0.00119841 4.85483 -0.634965 -2.84217e-14 -41 -2 -5.54596 5.30113 6.47076 2.84217e-14 -7.5 12.5 -1.98785e-16 0.000220051 -0 -8.52651e-14 3.55271e-15 4 3.8744 -3.97645 38.3321 -8 0 0 5.37784 -6.92674 -3.62004 -2.84217e-14 -45 -1 0.011947 9.021 -0.296372 0 -41 -2 -1.17865 -1.67795 -2.05838 0 -7.5 12.5 1.21329e-19 9.70628e-20 3.18055e-15 0 -8.67362e-19 4 3.13001 -3.15235 33.2865 
